<?xml version="1.0" standalone="no"?>
<!DOCTYPE svg PUBLIC "-//W3C//DTD SVG 20010904//EN"
 "http://www.w3.org/TR/2001/REC-SVG-20010904/DTD/svg10.dtd">
<svg version="1.0" xmlns="http://www.w3.org/2000/svg"
 width="202.000000pt" height="196.000000pt" viewBox="0 0 202.000000 196.000000"
 preserveAspectRatio="xMidYMid meet">
<metadata>
Created by potrace 1.10, written by Peter Selinger 2001-2011
</metadata>
<g transform="translate(0.000000,196.000000) scale(0.050000,-0.050000)"
fill="#000000" stroke="none">
<path d="M1400 3900 c0 -12 -23 -30 -52 -41 -28 -11 -56 -37 -62 -58 -5 -20
-31 -43 -58 -50 -50 -12 -118 -118 -98 -152 11 -17 -2 -22 -42 -18 -23 3 -67
-71 -67 -114 -1 -46 -49 -97 -76 -80 -9 6 -18 -8 -20 -30 -3 -43 -64 -100 -90
-84 -8 5 -16 -7 -17 -27 0 -20 -6 -25 -11 -12 -14 36 -67 7 -67 -36 0 -21 -12
-38 -27 -38 -47 0 -153 -62 -153 -89 0 -35 -55 -55 -67 -25 -6 15 -10 12 -11
-7 -1 -17 -13 -42 -26 -55 -33 -33 -35 -460 -1 -488 14 -12 25 -13 26 -3 0 9
10 0 22 -20 16 -29 15 -42 -6 -55 -22 -14 -21 -17 4 -18 17 0 62 -22 99 -50
37 -27 85 -50 106 -50 25 0 34 -10 27 -29 -14 -38 24 -62 52 -34 16 16 34 8
66 -26 25 -27 52 -42 60 -35 8 8 10 -6 4 -30 -6 -25 -5 -43 2 -41 33 10 185
-68 177 -90 -5 -14 -19 -23 -31 -20 -35 8 -27 -18 20 -68 37 -39 39 -50 16
-79 -23 -27 -23 -36 2 -55 17 -13 27 -39 23 -59 -4 -20 -1 -52 7 -70 9 -19 14
-41 12 -49 -2 -8 7 -15 18 -15 12 0 16 -17 10 -38 -9 -28 -1 -42 28 -52 23 -7
37 -20 32 -29 -5 -8 12 -25 40 -38 27 -12 49 -34 49 -48 -1 -17 -7 -16 -22 5
-19 27 -20 27 -13 0 5 -16 21 -30 37 -30 34 0 69 -76 39 -86 -12 -4 -21 -25
-21 -46 0 -21 -13 -38 -28 -38 -29 0 -32 -32 -6 -74 8 -13 6 -29 -6 -36 -29
-18 113 -157 166 -162 97 -10 482 -6 794 8 l330 14 65 68 c73 76 75 83 40 121
-20 21 -20 24 0 13 16 -9 21 -4 13 17 -7 17 -20 26 -30 20 -10 -6 -12 3 -6 20
7 18 -1 36 -20 43 -46 18 -41 103 8 118 22 7 47 8 56 3 8 -6 15 6 15 26 0 24
-11 33 -30 27 -20 -6 -17 2 9 24 22 18 38 41 35 51 -3 11 11 19 30 19 27 1 29
4 8 18 -19 12 -21 21 -5 31 12 7 22 31 22 52 0 26 14 39 40 39 22 0 40 9 40
19 0 11 -13 15 -28 9 -15 -6 -35 0 -43 14 -9 14 -7 19 6 11 11 -7 33 3 48 21
24 29 23 32 -8 20 -42 -15 -45 -1 -7 37 16 16 24 45 18 66 -5 21 0 45 12 52
12 7 22 31 22 53 0 22 -9 35 -20 28 -11 -7 -20 -3 -20 9 0 11 16 22 35 23 21
1 25 5 10 11 -43 18 -27 44 30 51 31 3 53 17 50 31 -3 14 11 25 30 25 20 0 47
18 60 40 14 22 46 40 72 40 60 0 78 19 50 54 -18 21 -17 33 3 52 20 19 23 18
10 -4 -11 -18 -7 -24 12 -17 15 5 26 20 23 32 -7 31 89 29 102 -2 6 -15 10
-11 11 10 1 19 16 35 32 35 33 0 110 69 110 98 0 10 11 22 25 27 14 5 26 21
27 37 1 15 3 44 5 63 2 19 18 35 37 35 30 0 31 2 2 25 -19 15 -36 72 -43 147
-15 156 -28 187 -87 210 -38 14 -46 27 -35 61 12 37 7 41 -38 33 -29 -6 -47
-3 -41 7 6 9 -27 17 -73 17 -71 0 -81 5 -71 35 10 29 6 28 -21 -5 -27 -34 -31
-35 -20 -4 8 22 1 40 -17 47 -17 6 -30 20 -30 30 0 11 17 10 39 -2 23 -13 43
-14 50 -3 14 22 -99 50 -128 32 -13 -7 -15 1 -7 22 10 26 5 32 -19 23 -17 -7
-48 0 -68 16 -34 26 -34 28 -2 28 48 1 44 41 -4 41 -21 0 -44 8 -50 18 -6 10
9 13 34 7 43 -11 44 -10 10 28 -19 22 -29 46 -22 53 7 7 -2 19 -20 26 -18 7
-33 28 -33 46 0 45 -50 112 -83 112 -15 1 -24 16 -21 35 6 38 -28 49 -40 12
-5 -14 -21 -9 -45 14 -23 24 -28 40 -14 45 44 14 22 44 -32 44 -34 0 -65 16
-80 40 -29 46 -1185 65 -1185 20z m825 -39 c241 -40 544 -245 643 -437 l33
-64 -80 0 c-45 0 -81 9 -81 21 0 31 -176 213 -251 260 -363 224 -953 122
-1149 -198 -44 -72 -59 -82 -126 -82 l-76 -1 59 85 c226 330 609 485 1028 416z
m-32 -303 c171 -52 313 -184 334 -310 20 -122 15 -908 -5 -908 -11 0 -22 201
-25 466 -6 414 -11 472 -45 525 -45 72 -112 128 -152 129 -16 0 -1 -20 34 -45
109 -77 115 -104 122 -605 l7 -460 -478 -1 -477 -1 8 461 c11 588 42 657 342
753 145 46 171 46 335 -4z m-965 -528 c6 -110 14 -337 18 -505 l6 -305 -85 0
c-230 0 -269 77 -266 514 2 430 37 496 258 496 l58 0 11 -200z m1718 -305 l4
-505 -85 0 -85 0 10 135 c13 167 28 546 29 741 l1 147 61 -7 62 -6 3 -505z
m154 433 c0 -27 -47 -22 -89 9 -58 42 -20 80 40 40 27 -17 49 -40 49 -49z m37
-107 c5 -29 -1 -29 -65 2 -40 19 -72 46 -72 60 0 37 128 -20 137 -62z m-46
-40 c56 -24 96 -71 60 -71 -26 0 -151 70 -151 84 0 22 11 20 91 -13z m-2271
-51 c0 -46 -12 -66 -47 -79 -98 -37 -107 -224 -13 -277 90 -51 86 -144 -6
-144 -128 0 -144 31 -144 270 0 200 3 216 47 252 78 63 163 51 163 -22z m2552
45 c96 -65 108 -452 16 -519 -75 -55 -158 -34 -155 39 1 36 11 63 22 61 88
-19 117 245 32 283 -40 17 -75 116 -50 141 15 15 110 11 135 -5z m-283 -79
c68 -32 94 -66 50 -66 -36 0 -139 60 -139 81 0 26 7 25 89 -15z m68 -117 c5
-5 4 -15 -4 -23 -18 -18 -153 47 -153 74 0 18 131 -24 157 -51z m3 -104 c0
-32 -5 -32 -89 9 -103 49 -95 93 9 50 44 -19 80 -45 80 -59z m-72 -35 c57 -24
100 -70 64 -70 -30 0 -152 64 -152 80 0 26 2 26 88 -10z m1 -84 c68 -32 94
-66 50 -66 -36 0 -139 60 -139 81 0 26 7 25 89 -15z m70 -121 c4 -3 0 -14 -10
-24 -21 -21 -149 49 -149 81 0 14 116 -28 159 -57z m-23 -76 c4 -3 -5 -26 -20
-52 -14 -26 -27 -50 -29 -54 -2 -3 -22 4 -45 16 -61 33 -53 68 13 53 52 -12
53 -11 16 18 -21 16 -46 30 -55 30 -9 0 -16 14 -16 31 0 27 88 0 136 -42z
m-804 -200 c21 -83 -7 -90 -313 -85 -260 5 -289 10 -295 42 -17 89 -1 94 305
94 l290 0 13 -51z m-952 -229 c9 -185 17 -222 67 -307 167 -285 732 -361 1012
-136 59 48 87 58 128 47 214 -57 -236 -274 -561 -270 -490 6 -741 220 -746
636 -4 265 -6 254 45 246 43 -6 46 -17 55 -216z m1397 152 c6 -52 1 -56 -40
-45 -26 7 -54 13 -62 13 -19 0 -20 69 -1 88 35 34 96 1 103 -56z m-197 -104
c0 -15 -13 -23 -30 -17 -107 33 -103 30 -62 60 42 31 92 8 92 -43z m-996 -46
c40 -233 275 -376 531 -321 74 16 114 14 175 -8 l80 -29 -100 -47 c-214 -100
-503 -46 -668 124 -136 139 -172 401 -52 371 11 -3 26 -43 34 -90z m1145 58
c54 -20 71 -80 23 -80 -56 0 -92 25 -92 62 0 44 1 44 69 18z m-401 -53 c38
-99 9 -108 -304 -103 -310 6 -332 14 -296 107 17 46 583 42 600 -4z m251 -40
c4 -4 -1 -17 -13 -29 -33 -33 -115 -13 -123 29 -6 34 99 34 136 0z m197 -73
c4 -20 -6 -34 -23 -34 -56 0 -93 24 -93 60 0 48 107 23 116 -26z m-256 -58 c0
-39 -7 -41 -75 -23 -69 18 -57 69 15 63 43 -3 60 -15 60 -40z m224 -32 c20 -8
28 -24 20 -37 -19 -31 -124 -10 -124 25 0 29 47 34 104 12z m-287 -55 c26 -25
-38 -52 -95 -39 -62 13 -75 30 -47 58 15 15 123 1 142 -19z m235 -49 c15 0 28
-13 28 -30 0 -33 -73 -40 -118 -12 -35 22 -8 68 32 53 16 -6 42 -11 58 -11z
m-405 -470 c22 -22 75 -30 192 -30 148 0 161 -3 161 -40 0 -40 -10 -40 -615
-35 -531 4 -615 9 -615 35 0 24 33 31 158 36 97 4 174 17 199 35 61 42 478 41
520 -1z"/>
<path d="M1621 3191 c-53 -64 25 -162 94 -119 69 44 45 148 -35 148 -19 0 -46
-13 -59 -29z"/>
<path d="M1849 3205 c-62 -42 -32 -145 41 -145 30 0 90 53 90 80 0 52 -87 95
-131 65z"/>
<path d="M2105 3197 c-45 -45 -30 -115 26 -129 66 -17 94 11 86 85 -8 63 -69
87 -112 44z"/>
<path d="M2315 3198 c-47 -27 -45 -91 4 -117 58 -32 80 -26 104 28 38 83 -27
136 -108 89z"/>
<path d="M1624 2996 c-51 -51 -13 -136 60 -136 52 0 90 89 56 129 -30 37 -83
40 -116 7z"/>
<path d="M1837 2985 c-41 -49 -24 -102 38 -118 85 -21 130 87 56 138 -34 23
-63 17 -94 -20z"/>
<path d="M2104 2996 c-64 -64 19 -174 95 -127 49 30 10 151 -49 151 -12 0 -33
-11 -46 -24z"/>
<path d="M2337 3007 c-74 -20 -55 -147 21 -147 61 0 92 53 65 111 -22 50 -27
51 -86 36z"/>
<path d="M1606 2767 c-28 -74 82 -140 132 -79 14 17 19 49 12 71 -16 52 -125
58 -144 8z"/>
<path d="M1828 2773 c-24 -63 0 -103 62 -103 53 0 60 7 60 60 0 68 -99 103
-122 43z"/>
<path d="M2088 2773 c-24 -63 0 -103 62 -103 53 0 60 7 60 60 0 68 -99 103
-122 43z"/>
<path d="M2290 2759 c-7 -22 -2 -54 11 -70 53 -64 154 -9 129 70 -9 29 -30 41
-70 41 -40 0 -61 -12 -70 -41z"/>
<path d="M1625 2587 c-32 -13 -32 -72 -1 -103 35 -35 110 -29 124 9 31 80 -34
130 -123 94z"/>
<path d="M1822 2564 c-28 -52 10 -104 77 -104 62 0 89 50 57 107 -24 44 -110
42 -134 -3z"/>
<path d="M2088 2571 c-21 -53 2 -101 51 -108 63 -9 108 47 80 100 -24 44 -115
50 -131 8z"/>
<path d="M2299 2568 c-19 -23 -21 -41 -6 -65 49 -77 165 -30 137 56 -15 50
-93 55 -131 9z"/>
<path d="M1043 3094 c-50 -54 -72 -177 -46 -264 17 -60 17 -60 32 30 9 50 25
102 38 117 16 21 12 35 -18 57 -37 29 -37 30 11 17 39 -11 43 -9 20 8 -26 18
-26 23 -1 40 17 10 25 24 19 30 -6 6 -31 -10 -55 -35z"/>
<path d="M292 688 c-7 -19 -27 -25 -59 -17 -28 7 -55 2 -63 -12 -11 -17 -19
-18 -29 0 -10 16 -35 4 -78 -36 l-63 -59 0 -282 0 -282 248 0 c202 0 250 6
259 30 15 39 71 39 86 0 13 -35 2647 -47 2647 -12 0 10 23 23 50 30 27 7 50
22 50 34 0 11 8 15 19 9 10 -6 24 -3 31 9 18 29 110 25 110 -5 1 -19 5 -18 17
2 12 18 21 8 30 -35 l12 -62 189 0 189 0 14 65 c13 57 17 60 30 25 14 -34 16
-35 18 -5 0 19 10 35 21 35 12 0 20 97 20 250 0 187 -6 250 -25 250 -17 1 -15
7 5 20 26 17 25 19 -5 20 -19 0 -35 10 -35 23 0 13 -16 8 -39 -12 -21 -19 -48
-29 -60 -22 -12 8 -36 -1 -54 -19 -48 -48 -171 -33 -197 25 -22 51 -36 55 -74
20 -71 -65 -112 -75 -184 -44 -39 16 -91 29 -116 29 -38 1 -41 4 -16 21 22 15
-12 19 -122 15 -135 -6 -156 -12 -202 -61 -54 -59 -104 -70 -130 -30 -35 55
-111 82 -130 47 -10 -18 -27 -28 -37 -21 -11 6 -25 -3 -31 -20 -18 -47 -121
-38 -173 14 -39 39 -69 46 -225 50 -121 3 -167 -1 -140 -14 35 -16 33 -18 -20
-20 -64 -2 -130 -41 -130 -78 0 -12 -13 -17 -28 -11 -19 7 -41 -14 -63 -60
-18 -40 -40 -67 -49 -62 -8 5 -22 -11 -31 -35 -13 -39 -17 -35 -23 30 -6 49
-19 75 -38 75 -16 0 -38 21 -50 47 -12 26 -52 59 -89 73 -37 15 -72 39 -78 53
-5 15 -25 27 -44 27 -31 0 -30 -3 4 -29 38 -29 38 -30 -1 -30 -22 -1 -63 -13
-91 -28 -54 -28 -78 -16 -105 54 -11 30 -20 33 -43 14 -22 -18 -30 -16 -37 13
-9 34 -10 34 -12 -1 -1 -24 -12 -33 -31 -26 -17 6 -25 1 -20 -13 5 -13 -17
-42 -49 -63 -33 -22 -54 -48 -47 -59 6 -11 -21 6 -61 37 -41 31 -68 66 -61 78
9 16 5 16 -13 0 -32 -31 -81 -12 -67 25 13 32 -24 39 -43 8 -7 -11 -32 -20
-55 -20 -42 0 -42 -1 -4 -29 38 -29 37 -30 -11 -28 -27 1 -66 -4 -85 -12 -25
-11 -40 -1 -58 37 -21 46 -32 51 -90 40 -40 -7 -67 -4 -67 8 0 33 -56 44 -68
12z m145 -210 c197 -69 123 -280 -104 -298 -120 -10 -123 -11 -117 -65 6 -51
2 -55 -65 -55 l-71 0 0 220 0 220 147 0 c81 0 176 -10 210 -22z m383 -116 c0
-195 5 -202 130 -202 125 0 130 7 130 202 l0 138 70 0 70 0 0 -160 c0 -215
-49 -278 -230 -293 -226 -18 -309 65 -310 308 l0 145 70 0 70 0 0 -138z m700
-32 l0 -170 140 0 c136 0 140 -1 140 -50 l0 -50 -210 0 -210 0 0 220 0 220 70
0 70 0 0 -170z m882 112 c74 -90 -31 -156 -115 -72 -44 44 -227 37 -227 -9 0
-9 59 -21 130 -29 227 -23 297 -77 250 -192 -59 -142 -446 -127 -497 20 -24
69 78 93 125 29 35 -47 252 -49 252 -1 0 33 -61 51 -176 52 -196 0 -293 162
-139 231 106 48 349 31 397 -29z m338 -167 l0 -225 -60 0 -60 0 0 225 0 225
60 0 60 0 0 -225z m620 165 l0 -60 -150 0 c-138 0 -150 -3 -150 -41 0 -39 10
-41 135 -37 131 5 135 4 135 -43 0 -47 -5 -49 -135 -46 l-135 3 0 -83 c0 -80
-2 -83 -63 -81 l-62 2 2 218 c1 120 2 220 2 223 1 3 96 5 211 5 l210 0 0 -60z
m306 -40 c70 -124 78 -124 148 0 49 88 64 100 121 100 82 0 84 11 -37 -180
-74 -116 -100 -175 -93 -210 9 -45 3 -50 -58 -50 -58 0 -67 7 -67 50 0 46
-123 269 -197 355 -27 32 -23 35 49 35 73 0 82 -7 134 -100z"/>
<path d="M204 335 c8 -59 182 -79 204 -24 20 53 -5 69 -111 69 -92 0 -99 -3
-93 -45z"/>
</g>
</svg>
